<?xml version="1.0" encoding="UTF-8" standalone="no"?>
<svg
   height="16"
   viewBox="0 0 16 16"
   width="16"
   version="1.1"
   id="svg4"
   sodipodi:docname="NodeInfo.svg"
   inkscape:version="1.1.2 (b8e25be833, 2022-02-05)"
   xmlns:inkscape="http://www.inkscape.org/namespaces/inkscape"
   xmlns:sodipodi="http://sodipodi.sourceforge.net/DTD/sodipodi-0.dtd"
   xmlns="http://www.w3.org/2000/svg"
   xmlns:svg="http://www.w3.org/2000/svg">
  <defs
     id="defs8">
    <clipPath
       clipPathUnits="userSpaceOnUse"
       id="clipPath2555">
      <g
         inkscape:label="Clip"
         id="use2557"
         style="fill:#000000">
        <rect
           style="fill:#000000;fill-opacity:1;stroke-width:0;stroke-linecap:round;stroke-linejoin:round"
           id="rect2657"
           width="2.0000002"
           height="5"
           x="7"
           y="6.0016422"
           transform="translate(0,0.99835766)" />
        <rect
           style="fill:#000000;fill-opacity:1;stroke-width:0;stroke-linecap:round;stroke-linejoin:round"
           id="rect2659"
           width="2.0000002"
           height="1.9999999"
           x="7"
           y="3.0016425"
           transform="translate(0,0.99835766)" />
      </g>
    </clipPath>
  </defs>
  <sodipodi:namedview
     id="namedview6"
     pagecolor="#000000"
     bordercolor="#666666"
     borderopacity="1.0"
     inkscape:pageshadow="2"
     inkscape:pageopacity="0"
     inkscape:pagecheckerboard="0"
     showgrid="false"
     inkscape:zoom="26"
     inkscape:cx="0.67307692"
     inkscape:cy="8.3461538"
     inkscape:window-width="1920"
     inkscape:window-height="1017"
     inkscape:window-x="-8"
     inkscape:window-y="-8"
     inkscape:window-maximized="1"
     inkscape:current-layer="svg4" />
  <path
     id="path32"
     style="fill:#ffffff;fill-opacity:1;stroke-width:0;stroke-linecap:round;stroke-linejoin:round"
     d="M 8 1 A 7 7 0 0 0 1 8 A 7 7 0 0 0 8 15 A 7 7 0 0 0 15 8 A 7 7 0 0 0 8 1 z M 7 4 L 9 4 L 9 6 L 7 6 L 7 4 z M 7 7 L 9 7 L 9 12 L 7 12 L 7 7 z " />
</svg>
